<?xml version="1.0" standalone="no"?>
<!DOCTYPE svg PUBLIC "-//W3C//DTD SVG 20010904//EN"
 "http://www.w3.org/TR/2001/REC-SVG-20010904/DTD/svg10.dtd">
<svg version="1.0" xmlns="http://www.w3.org/2000/svg"
 width="54.000000pt" height="41.000000pt" viewBox="0 0 54.000000 41.000000"
 preserveAspectRatio="xMidYMid meet">
<metadata>
Created by potrace 1.11, written by Peter Selinger 2001-2013
</metadata>
<g transform="translate(0.000000,41.000000) scale(0.100000,-0.100000)"
fill="#000000" stroke="none">
<path d="M62 371 c-63 -87 -70 -211 -17 -297 17 -26 36 -49 42 -52 26 -8 24
27 -4 69 -25 37 -28 52 -28 118 0 66 4 82 29 120 22 34 26 48 19 64 -9 20 -12
18 -41 -22z"/>
<path d="M191 387 c-25 -12 -59 -39 -75 -60 -29 -36 -31 -45 -31 -116 0 -70 3
-81 29 -115 73 -96 194 -111 282 -34 49 43 66 81 66 149 0 84 -45 150 -124
184 -51 21 -95 18 -147 -8z m156 -47 c86 -52 101 -156 32 -234 -90 -104 -259
-35 -259 106 0 114 130 188 227 128z"/>
<path d="M440 390 c-9 -17 -9 -25 4 -39 60 -66 60 -216 0 -282 -14 -16 -10
-49 7 -49 23 0 71 90 84 157 9 45 -20 148 -54 195 -29 39 -30 39 -41 18z"/>
</g>
</svg>
